# xmcd CD database file
#
# Track frame offsets:
#	150
#	36726
#	75205
#	109759
#	150951
#	181055
#	213350
#	243839
#
# Disc length: 3894 seconds
#
# Revision: 0
# Processed by: cddbd v1.5.1PL2 Copyright (c) Steve Scherf et al.
# Submitted via: CDex 1.50beta10
#
DISCID=550f3408
DTITLE=Marvin Stamm - The Stamm Soph Project Live at Birdland NYC
DYEAR=2005
DGENRE=Jazz
TTITLE0=Svensson
TTITLE1=Samba du Nancy
TTITLE2=In her Arms
TTITLE3=Waltz for Mia
TTITLE4=Two as One
TTITLE5=When she smiles upon your face
TTITLE6=Gemma's Eys
TTITLE7=The Meddler
EXTD=YEAR: 2005
EXTT0=
EXTT1=
EXTT2=
EXTT3=
EXTT4=
EXTT5=
EXTT6=
EXTT7=
PLAYORDER=
